<?xml version="1.0" standalone="no"?>
<!DOCTYPE svg PUBLIC "-//W3C//DTD SVG 20010904//EN"
 "http://www.w3.org/TR/2001/REC-SVG-20010904/DTD/svg10.dtd">
<svg version="1.0" xmlns="http://www.w3.org/2000/svg"
 width="415.000000pt" height="415.000000pt" viewBox="0 0 415.000000 415.000000"
 preserveAspectRatio="xMidYMid meet">
<metadata>
(c) rebaze GmbH 2019
</metadata>
<g transform="translate(0.000000,415.000000) scale(0.100000,-0.100000)"
fill="#000000" stroke="none">
<path d="M1909 4138 c-242 -17 -509 -89 -734 -198 -381 -184 -676 -459 -904
-841 -119 -198 -223 -514 -255 -769 -13 -105 -15 -419 -3 -490 2 -14 7 -50 11
-80 18 -131 76 -337 133 -475 209 -503 618 -913 1115 -1119 433 -179 904 -209
1348 -86 132 37 222 71 355 136 629 306 1058 905 1149 1604 14 104 14 416 2
510 -25 176 -79 381 -143 535 -52 127 -162 326 -226 410 -173 228 -333 383
-536 519 -240 161 -546 283 -808 322 -21 3 -48 7 -61 9 -109 18 -297 24 -443
13z"/>
</g>
</svg>
